<?xml version="1.0" encoding="UTF-8"?><svg id="Ebene_1" xmlns="http://www.w3.org/2000/svg" viewBox="0 0 82.25 141.24"><defs><style>.cls-1{fill:#db7f33;}</style></defs><path class="cls-1" d="M72.9,141.24c4.7-5.05,4.52-10.3,3.65-15.42-1.22-7.27-2.72-14.53-4.61-21.65-.57-2.12-2.61-4.08-4.43-5.57-2.04-1.67-4.59-2.71-7.11-4.14,6.78-3.73,8.62-3.78,21.84-.43-1.03-1.41-1.49-2.42-2.25-3.04-6.85-5.6-13.91-10.54-23.31-11.03-4.46-.23-7.2-3.7-7.5-7.96-.4-5.84-.89-11.94.33-17.57,2.13-9.86.55-18.44-5.02-26.73C37.55,17.35,29.34,8.25,19.5,0c-.97.69-2.71,1.34-2.73,2.03-.11,5.92-1.87,11.95,1.46,17.67,1.06,1.82,1.19,4.18,1.79,6.27,1.28,4.43,1.99,9.17,4.11,13.14,1.58,2.94,1.8,5.27,1.06,8.28-1.18,4.78-2.58,9.63-2.81,14.5-.25,5.33.52,10.74,1.22,16.07.79,6,.41,7.13-5.51,7.93-4.83.65-9.75.52-15.01.75-.7,1.61-1.37,3.43-2.24,5.15-1.95,3.81-.29,6.67,2.33,9.25,2.5,2.45,5.29,3.49,8.7,1.66,4.12-2.22,8.32-4.29,13.45-6.92,6.15,4.67,12.96,9.43,19.24,14.82,2.27,1.95,3.89,5.22,4.72,8.18,3.43,12.19,14.04,16.34,23.61,22.46h0Z"/></svg>